<svg width="40" height="40" viewBox="0 0 40 40" fill="none" xmlns="http://www.w3.org/2000/svg">
<g clip-path="url(#clip0_52_676)">
<path d="M39.2519 25.4122C42.2407 14.7791 36.0438 3.73641 25.4108 0.747591C14.7777 -2.24123 3.73502 3.95565 0.746204 14.5887C-2.24261 25.2218 3.95427 36.2645 14.5873 39.2533C25.2204 42.2421 36.2631 36.0452 39.2519 25.4122Z" fill="#FFBF3C"/>
<path d="M11.7425 13.5535C11.7425 15.4402 10.2127 16.9701 8.32598 16.9701C6.43929 16.9701 4.90942 15.4402 4.90942 13.5535C4.90942 11.6668 6.43929 10.137 8.32598 10.137C10.2127 10.137 11.7425 11.6668 11.7425 13.5535V13.5535Z" fill="#231F20"/>
<path d="M8.93922 13.0141C8.93922 13.8488 8.26247 14.5234 7.42986 14.5234C6.59726 14.5234 5.91846 13.8467 5.91846 13.0141C5.91846 12.1815 6.59521 11.5027 7.42986 11.5027C8.26452 11.5027 8.93922 12.1794 8.93922 13.0141V13.0141Z" fill="white"/>
<path d="M35.0882 13.5535C35.0882 15.4402 33.5584 16.9701 31.6717 16.9701C29.785 16.9701 28.2551 15.4402 28.2551 13.5535C28.2551 11.6668 29.785 10.137 31.6717 10.137C33.5584 10.137 35.0882 11.6668 35.0882 13.5535Z" fill="#231F20"/>
<path d="M32.2827 13.0141C32.2827 13.8488 31.606 14.5234 30.7713 14.5234C29.9367 14.5234 29.262 13.8467 29.262 13.0141C29.262 12.1815 29.9387 11.5027 30.7713 11.5027C31.6039 11.5027 32.2827 12.1794 32.2827 13.0141V13.0141Z" fill="white"/>
<path d="M30.5666 23.2617C30.1647 23.1817 29.773 23.4442 29.693 23.8461C29.6889 23.8646 29.3238 25.6405 27.956 27.4801C26.1431 29.9164 25.2039 31.3991 19.9991 31.6698C15.7376 31.6123 13.855 29.9164 12.0421 27.4801C10.6763 25.6446 10.3092 23.8728 10.3051 23.8482C10.2252 23.4462 9.83756 23.1837 9.43356 23.2617C9.02956 23.3396 8.76706 23.7313 8.84499 24.1332C8.8614 24.2173 9.2613 26.2066 10.8055 28.3106C12.2308 30.2506 15.6432 33.1094 19.9991 33.1094C24.9906 33.1094 27.7653 30.2506 29.1926 28.3106C30.7368 26.2066 31.1367 24.2173 31.1531 24.1332C31.231 23.7313 30.9686 23.3416 30.5666 23.2637V23.2617Z" fill="#231F20"/>
</g>
<defs>
<clipPath id="clip0_52_676">
<rect width="40" height="40" fill="white"/>
</clipPath>
</defs>
</svg>
