<svg width="40" height="40" viewBox="0 0 40 40" fill="none" xmlns="http://www.w3.org/2000/svg">
<g clip-path="url(#clip0_52_636)">
<path d="M39.6594 23.6704C41.6855 12.8127 34.5261 2.3683 23.6683 0.342222C12.8106 -1.68386 2.36626 5.47559 0.340176 16.3333C-1.68591 27.191 5.47354 37.6354 16.3313 39.6615C27.189 41.6875 37.6333 34.5281 39.6594 23.6704Z" fill="#FFBF3C"/>
<path d="M11.7425 17.6919C11.7425 19.5786 10.2127 21.1085 8.32598 21.1085C6.43929 21.1085 4.90942 19.5786 4.90942 17.6919C4.90942 15.8053 6.43929 14.2754 8.32598 14.2754C10.2127 14.2754 11.7425 15.8053 11.7425 17.6919Z" fill="#231F20"/>
<path d="M8.93922 17.1505C8.93922 17.9851 8.26247 18.6619 7.42781 18.6619C6.59316 18.6619 5.91846 17.9851 5.91846 17.1505C5.91846 16.3158 6.59521 15.6411 7.42781 15.6411C8.26042 15.6411 8.93922 16.3179 8.93922 17.1505Z" fill="white"/>
<path d="M35.0882 17.6919C35.0882 19.5786 33.5584 21.1085 31.6717 21.1085C29.785 21.1085 28.2551 19.5786 28.2551 17.6919C28.2551 15.8053 29.785 14.2754 31.6717 14.2754C33.5584 14.2754 35.0882 15.8053 35.0882 17.6919Z" fill="#231F20"/>
<path d="M32.2827 17.1505C32.2827 17.9851 31.606 18.6619 30.7713 18.6619C29.9367 18.6619 29.262 17.9851 29.262 17.1505C29.262 16.3158 29.9387 15.6411 30.7713 15.6411C31.6039 15.6411 32.2827 16.3179 32.2827 17.1505Z" fill="white"/>
<path d="M29.2622 29.4673H10.0404C9.64462 29.4673 9.32471 29.1474 9.32471 28.7516C9.32471 28.3558 9.64462 28.0359 10.0404 28.0359H29.2642C29.66 28.0359 29.9799 28.3558 29.9799 28.7516C29.9799 29.1474 29.66 29.4673 29.2642 29.4673H29.2622Z" fill="#231F20"/>
</g>
<defs>
<clipPath id="clip0_52_636">
<rect width="40" height="40" fill="white"/>
</clipPath>
</defs>
</svg>
