<svg width="42" height="40" viewBox="0 0 42 40" fill="none" xmlns="http://www.w3.org/2000/svg">
<g clip-path="url(#clip0_52_667)">
<path d="M40.382 24.6367C42.9385 13.8923 36.3116 3.10714 25.5804 0.547459C14.8492 -2.01223 4.07739 4.62282 1.52086 15.3673C-1.03567 26.1117 5.59121 36.8968 16.3224 39.4565C27.0536 42.0162 37.8255 35.3811 40.382 24.6367Z" fill="#FFBF3C"/>
<path d="M20.9513 26.2107C19.4315 26.1697 16.5517 25.8559 14.5649 25.374C10.5053 24.3917 7.26709 22.8721 7.26709 22.8721C7.26709 22.8721 7.26709 30.2589 13.9034 34.0877C15.9557 35.2709 19.2718 35.8021 20.9534 36.0051V26.2087L20.9513 26.2107Z" fill="#231F20"/>
<path d="M20.9514 26.2107C22.4712 26.1697 25.3531 25.858 27.3419 25.3781C31.4015 24.3958 34.6397 22.8762 34.6397 22.8762C34.6397 22.8762 34.6397 30.263 28.0035 34.0918C25.9511 35.2751 22.6351 35.8062 20.9535 36.0093V26.2107H20.9514Z" fill="#231F20"/>
<path d="M30.6375 24.4308C29.6502 24.7568 28.5298 25.0891 27.3398 25.3782C25.353 25.8581 22.5593 26.0262 20.9534 26.0386C19.4337 26.0488 16.5518 25.856 14.565 25.3762C13.375 25.0891 12.2567 24.7548 11.2674 24.4287C11.0625 25.2818 10.8802 26.4241 10.9048 27.7489C10.9396 29.6233 11.1404 31.0957 11.3902 32.2257C12.0989 32.9065 12.9285 33.5443 13.9034 34.1062C15.9537 35.2895 19.2575 36.0442 20.9514 36.0216C22.7784 35.9991 25.9491 35.2916 28.0014 34.1083C28.9743 33.5464 29.8059 32.9086 30.5146 32.2277C30.7645 31.0978 30.9631 29.6274 31 27.7509C31.0246 26.4241 30.8443 25.2839 30.6375 24.4308Z" fill="white"/>
<path d="M17.2461 5.53702C13.5695 2.00767 9.07158 6.79003 9.07158 6.79003C9.07158 6.79003 4.30944 2.27221 0.839734 6.00459C-3.33866 10.4998 9.44845 20.0113 9.44845 20.0113C9.44845 20.0113 21.6743 9.78618 17.2481 5.53702H17.2461Z" fill="#F92A08"/>
<path d="M40.938 5.53702C37.2614 2.00767 32.7635 6.79003 32.7635 6.79003C32.7635 6.79003 28.0013 2.27221 24.5316 6.00459C20.3532 10.4998 33.1403 20.0113 33.1403 20.0113C33.1403 20.0113 45.3662 9.78618 40.94 5.53702H40.938Z" fill="#F92A08"/>
</g>
<defs>
<clipPath id="clip0_52_667">
<rect width="41.9048" height="40" fill="white"/>
</clipPath>
</defs>
</svg>
