<svg width="40" height="40" viewBox="0 0 40 40" fill="none" xmlns="http://www.w3.org/2000/svg">
<g clip-path="url(#clip0_52_646)">
<path d="M39.9978 19.8779C40.0655 30.9232 31.1652 39.9322 20.1199 39.9978C9.07654 40.0655 0.0675701 31.1673 -0.000104892 20.1219C-0.0677798 9.07654 8.8325 0.0675701 19.8779 -0.000104892C30.9232 -0.0677798 39.9322 8.8325 39.9978 19.8779Z" fill="#FFBF3C"/>
<path d="M11.7036 13.6027C11.7159 15.4894 10.1942 17.0274 8.3075 17.0397C6.42081 17.052 4.88274 15.5304 4.87044 13.6437C4.85813 11.757 6.37979 10.2189 8.26649 10.2066C10.1532 10.1943 11.6913 11.716 11.7036 13.6027Z" fill="#231F20"/>
<path d="M8.89603 13.0817C8.90013 13.9164 8.22953 14.5952 7.39487 14.6013C6.56022 14.6075 5.88142 13.9349 5.87526 13.1002C5.87116 12.2655 6.54176 11.5847 7.37642 11.5806C8.21107 11.5765 8.88987 12.2471 8.89603 13.0817Z" fill="white"/>
<path d="M35.0493 13.4611C35.0616 15.3478 33.5399 16.8858 31.6532 16.8981C29.7665 16.9104 28.2284 15.3888 28.2161 13.5021C28.2038 11.6154 29.7255 10.0773 31.6122 10.065C33.4989 10.0527 35.037 11.5744 35.0493 13.4611Z" fill="#231F20"/>
<path d="M32.2398 12.9382C32.2439 13.7728 31.5733 14.4516 30.7386 14.4578C29.904 14.4619 29.2252 13.7913 29.219 12.9566C29.2149 12.122 29.8855 11.4432 30.7202 11.437C31.5548 11.4329 32.2336 12.1035 32.2398 12.9382Z" fill="white"/>
<path d="M30.6259 29.781C30.224 29.863 29.8323 29.6026 29.7503 29.2006C29.7462 29.1822 29.3709 27.4083 27.9907 25.579C26.1635 23.155 25.2161 21.6764 20.0092 21.4365C15.7477 21.5206 13.8754 23.2288 12.0789 25.6754C10.7254 27.519 10.3686 29.2929 10.3645 29.3196C10.2886 29.7215 9.901 29.9881 9.497 29.9123C9.093 29.8364 8.82846 29.4467 8.90433 29.0448C8.92074 28.9607 9.30833 26.9674 10.8402 24.8551C12.2532 22.9069 15.6493 20.0276 20.003 20.0009C22.4988 19.9866 24.445 20.688 25.9461 21.6375C27.4473 22.5849 28.5055 23.7784 29.2232 24.7443C30.7818 26.8382 31.192 28.8254 31.2104 28.9094C31.2904 29.3114 31.032 29.701 30.63 29.7831L30.6259 29.781Z" fill="#231F20"/>
</g>
<defs>
<clipPath id="clip0_52_646">
<rect width="40" height="40" fill="white"/>
</clipPath>
</defs>
</svg>
