<svg width="40" height="40" viewBox="0 0 40 40" fill="none" xmlns="http://www.w3.org/2000/svg">
<g clip-path="url(#clip0_52_656)">
<path d="M34.1391 34.1404C41.9492 26.3303 41.9492 13.6677 34.1391 5.85761C26.329 -1.95247 13.6663 -1.95247 5.85625 5.85761C-1.95383 13.6677 -1.95383 26.3303 5.85625 34.1404C13.6663 41.9505 26.329 41.9505 34.1391 34.1404Z" fill="#FFBF3C"/>
<path d="M11.7425 13.5535C11.7425 15.4402 10.2127 16.9701 8.32598 16.9701C6.43929 16.9701 4.90942 15.4402 4.90942 13.5535C4.90942 11.6668 6.43929 10.137 8.32598 10.137C10.2127 10.137 11.7425 11.6668 11.7425 13.5535Z" fill="#231F20"/>
<path d="M8.93922 13.0141C8.93922 13.8488 8.26247 14.5234 7.42781 14.5234C6.59316 14.5234 5.91846 13.8467 5.91846 13.0141C5.91846 12.1815 6.59521 11.5027 7.42781 11.5027C8.26042 11.5027 8.93922 12.1794 8.93922 13.0141Z" fill="white"/>
<path d="M35.0882 13.5535C35.0882 15.4402 33.5584 16.9701 31.6717 16.9701C29.785 16.9701 28.2551 15.4402 28.2551 13.5535C28.2551 11.6668 29.785 10.137 31.6717 10.137C33.5584 10.137 35.0882 11.6668 35.0882 13.5535Z" fill="#231F20"/>
<path d="M32.2829 13.0141C32.2829 13.8488 31.6061 14.5234 30.7735 14.5234C29.9409 14.5234 29.2642 13.8467 29.2642 13.0141C29.2642 12.1815 29.9409 11.5027 30.7735 11.5027C31.6061 11.5027 32.2829 12.1794 32.2829 13.0141Z" fill="white"/>
<path d="M6.36133 21.6252C6.36133 21.6252 7.36415 27.5232 11.7446 30.3553C14.8802 32.3835 20.0009 32.3835 20.0009 32.3835C20.0009 32.3835 25.1196 32.3835 28.2572 30.3553C32.6377 27.5212 33.6405 21.6252 33.6405 21.6252H6.36133Z" fill="#231F20"/>
<path d="M32.1783 25.7473C33.3042 23.5386 33.6384 21.6252 33.6384 21.6252H6.36133C6.36133 21.6252 6.6915 23.5612 7.79481 25.7473C7.79481 25.7473 12.8479 26.9593 19.9989 26.9818C27.9312 27.0064 30.0414 26.221 32.1762 25.7473H32.1783Z" fill="white"/>
</g>
<defs>
<clipPath id="clip0_52_656">
<rect width="40" height="40" fill="white"/>
</clipPath>
</defs>
</svg>
